<svg width="17" height="20" viewBox="0 0 17 20" fill="white" xmlns="http://www.w3.org/2000/svg">
<rect width="17" height="20" fill="white"/>
<g id="17_Blog_List" clip-path="url(#clip0_460_39913)">
<rect width="1920" height="3676" transform="translate(-299 -11)" fill="white"/>
<g id="Navigation">
<rect width="1920" height="195" transform="translate(-299 -11)" fill="white"/>
<g id="Small One" filter="url(#filter0_d_460_39913)">
<rect width="1920" height="42" transform="translate(-299 -11)" fill="white"/>
<g id="Contact">
<g id="Map Pin">
<path id="Vector" d="M16 8.36364C16 14.0909 8.5 19 8.5 19C8.5 19 1 14.0909 1 8.36364C1 6.41068 1.79018 4.53771 3.1967 3.15676C4.60322 1.77581 6.51088 1 8.5 1C10.4891 1 12.3968 1.77581 13.8033 3.15676C15.2098 4.53771 16 6.41068 16 8.36364Z" stroke="#B3B3B3" stroke-linecap="round" stroke-linejoin="round"/>
<path id="Vector_2" d="M8.5 10.8183C9.88071 10.8183 11 9.71933 11 8.36373C11 7.00812 9.88071 5.90918 8.5 5.90918C7.11929 5.90918 6 7.00812 6 8.36373C6 9.71933 7.11929 10.8183 8.5 10.8183Z" stroke="#B3B3B3" stroke-linecap="round" stroke-linejoin="round"/>
</g>
</g>
</g>
</g>
</g>
<defs>
<filter id="filter0_d_460_39913" x="-299" y="-11" width="1920" height="43" filterUnits="userSpaceOnUse" color-interpolation-filters="sRGB">
<feFlood flood-opacity="0" result="BackgroundImageFix"/>
<feColorMatrix in="SourceAlpha" type="matrix" values="0 0 0 0 0 0 0 0 0 0 0 0 0 0 0 0 0 0 127 0" result="hardAlpha"/>
<feOffset dy="1"/>
<feColorMatrix type="matrix" values="0 0 0 0 0.9 0 0 0 0 0.9 0 0 0 0 0.9 0 0 0 1 0"/>
<feBlend mode="normal" in2="BackgroundImageFix" result="effect1_dropShadow_460_39913"/>
<feBlend mode="normal" in="SourceGraphic" in2="effect1_dropShadow_460_39913" result="shape"/>
</filter>
<clipPath id="clip0_460_39913">
<rect width="1920" height="3676" fill="dark" transform="translate(-299 -11)"/>
</clipPath>
</defs>
</svg>
